<svg xmlns="http://www.w3.org/2000/svg" viewBox="0 0 64 64" width="100" height="100">
  <path d="M32 2c-6.6 0-12 5.4-12 12 0 1.3.2 2.5.6 3.6L20 21.4c-.3.2-.5.6-.6 1-.1.4 0 .8.3 1.1.4.4 1 .5 1.5.3.4-.2.8-.4 1.1-.6l3.8 1.4c.3.1.6.4.6.8 0 .3-.1.6-.3.8l-3.3 4.3c-.6.8-.7 1.9-.2 2.7.5.8 1.5 1.2 2.4.8l3.8-1.7c.3-.1.7 0 .9.3s.3.7.1 1c-.4.7-1 1.2-1.7 1.5-2.3 1-4.6 2.5-6.8 4.5-2.2 2-4.1 4.4-5.5 6.9-1.4 2.5-2.2 5.3-2.3 8.1-.1 2.8.7 5.6 2.3 8.1 1.6 2.5 3.9 4.5 6.5 5.7 2.6 1.2 5.5 1.8 8.4 1.8s5.8-.6 8.4-1.8c2.6-1.2 4.9-3.2 6.5-5.7 1.6-2.5 2.4-5.3 2.3-8.1-.1-2.8-.9-5.6-2.3-8.1-1.4-2.5-3.3-4.9-5.5-6.9-2.2-2-4.5-3.5-6.8-4.5-.7-.3-1.3-.8-1.7-1.5-.2-.3-.2-.7.1-1 .2-.3.6-.4.9-.3l3.8 1.7c.9.4 1.9.1 2.4-.8.5-.8.4-1.9-.2-2.7l-3.3-4.3c-.2-.3-.3-.5-.3-.8 0-.4.3-.7.6-.8l3.8-1.4c.4-.2.7-.6.8-1s-.2-.8-.6-1l-3.4-2.8c.4-1.1.6-2.3.6-3.6 0-6.6-5.4-12-12-12zm0 2c5.5 0 10 4.5 10 10 0 1.2-.2 2.4-.6 3.6L34 21.2c-.4.3-.6.9-.3 1.4.3.4.9.6 1.4.3l2.8-2.2c.2.5.5.9.9 1.3l-3.2 2.5c-.3.2-.5.6-.6 1-.1.4 0 .8.3 1.1.4.4 1 .5 1.5.3l3.8-1.4c-.1.1-.1.3-.2.4l-3.3 4.3c-.6.8-.7 1.9-.2 2.7.5.8 1.5 1.2 2.4.8l3.8-1.7c.3-.1.7 0 .9.3s.3.7.1 1c-1.3 2.1-2.9 3.9-4.7 5.4-1.8 1.5-3.8 2.6-5.9 3.3-.8.3-1.5.9-1.7 1.7-.3.9.1 1.9 1 2.2.5.2 1.1.2 1.6-.1 2.2-.9 4.3-2 6.4-3.4 2.1-1.4 4.1-3.1 5.8-5 1.7-1.9 3-4 3.8-6.3.8-2.3 1.2-4.7 1.1-7.1 0-2.4-.4-4.8-1.1-7.1-.8-2.3-2.1-4.4-3.8-6.3-1.7-1.9-3.7-3.6-5.8-5-2.1-1.4-4.2-2.5-6.4-3.4-.5-.2-1.1-.3-1.6-.1-.9.3-1.3 1.3-1 2.2.2.8.9 1.4 1.7 1.7 2.1.7 4.1 1.8 5.9 3.3 1.8 1.5 3.4 3.3 4.7 5.4.1.3.1.7-.1 1-.2.3-.6.4-.9.3l-3.8-1.7c-.9-.4-1.9-.1-2.4.8-.5.8-.4 1.9.2 2.7l3.3 4.3c.2.3.3.5.3.8 0 .4-.3.7-.6.8l-3.8 1.4c-.5.2-1.1.1-1.5-.3-.4-.4-.5-1-.3-1.5.2-.4.6-.8 1-.9l3.2-2.5c-.4-.4-.7-.9-.9-1.3l-2.8 2.2c-.5.4-1.1.2-1.4-.3-.3-.4-.2-1 .3-1.4l2.8-2.2c-.4-1.1-.6-2.4-.6-3.6 0-5.5 4.5-10 10-10z"/>
</svg>
